<?xml version="1.0" encoding="UTF-8" standalone="no"?>
<svg width="1249px" height="672px" viewBox="0 0 1249 672" version="1.1" xmlns="http://www.w3.org/2000/svg" xmlns:xlink="http://www.w3.org/1999/xlink">
    <defs>
        <polygon id="path-1" points="28.8921465 0.358829631 0.65220088 0.358829631 0.65220088 2.23059496 28.8921465 2.23059496 28.8921465 0.358829631"></polygon>
    </defs>
    <g id="Case-studies" stroke="none" stroke-width="1" fill="none" fill-rule="evenodd">
        <g id="Home---Apollo" transform="translate(-3.000000, -127.000000)">
            <g id="Page-1" transform="translate(-510.000000, 127.000000)">
                <g id="Group-206" transform="translate(0.000000, 0.345435)">
                    <polygon id="Fill-67" fill="#FFFFFF" points="1204.62617 680.956772 1228.01092 665.214797 1229.33295 667.154874 1205.94114 682.929983"></polygon>
                    <polygon id="Fill-69" fill="#FFFFFF" points="1239.64209 657.252868 1262.77795 641.147832 1264.11055 643.038561 1240.96765 659.17673"></polygon>
                    <polygon id="Fill-71" fill="#FFFFFF" points="1274.28263 633.005079 1297.16184 616.536984 1298.50361 618.376955 1275.61806 634.878183"></polygon>
                    <polygon id="Fill-73" fill="#FFFFFF" points="1308.53559 608.211291 1331.14686 591.378022 1332.49709 593.16794 1309.87947 610.035047"></polygon>
                    <polygon id="Fill-75" fill="#FFFFFF" points="1342.38439 582.8696 1364.71716 565.667632 1366.07515 567.407497 1343.73674 584.643304"></polygon>
                    <polygon id="Fill-77" fill="#FFFFFF" points="1375.81106 556.973662 1397.84981 539.39665 1399.21485 541.086462 1377.17116 558.696608"></polygon>
                    <polygon id="Fill-79" fill="#FFFFFF" points="1408.79289 530.513889 1430.52 512.554079 1431.89279 514.193133 1410.16005 532.186078"></polygon>
                    <polygon id="Fill-81" fill="#FFFFFF" points="1441.30239 503.477874 1462.69811 485.12469 1464.07725 486.710167 1442.6773 505.0986"></polygon>
                    <polygon id="Fill-83" fill="#FFFFFF" points="1473.30783 475.846371 1494.34395 457.084305 1495.73085 458.616909 1474.68979 477.414929"></polygon>
                    <polygon id="Fill-85" fill="#FFFFFF" points="1504.76661 447.597315 1525.41001 428.405922 1526.80536 429.883538 1506.15633 449.11159"></polygon>
                    <polygon id="Fill-87" fill="#FFFFFF" points="1535.627 418.699051 1555.83676 399.052248 1557.24058 400.472057 1537.02447 420.156929"></polygon>
                    <polygon id="Fill-89" fill="#FFFFFF" points="1565.82369 389.108931 1585.54413 368.973583 1586.95852 370.332765 1567.23103 390.509001"></polygon>
                    <path d="M1595.26911,358.775278 C1601.72061,351.946941 1608.10865,345.058681 1614.42548,338.106269 L1615.85187,339.400593 C1609.53222,346.36781 1603.14135,353.270874 1596.68774,360.113311 L1595.26911,358.775278 Z" id="Fill-91" fill="#FFFFFF"></path>
                    <path d="M1623.84559,327.627174 C1630.08839,320.60779 1636.25433,313.521434 1642.33496,306.362465 L1643.77685,307.585588 C1637.6927,314.761475 1631.52253,321.864046 1625.2762,328.89894 L1623.84559,327.627174 Z" id="Fill-93" fill="#FFFFFF"></path>
                    <path d="M1651.38786,295.566839 C1657.37683,288.332439 1663.27272,281.021197 1669.05933,273.624654 L1670.52308,274.76741 C1664.73083,282.183693 1658.83,289.512559 1652.8361,296.764583 L1651.38786,295.566839 Z" id="Fill-95" fill="#FFFFFF"></path>
                    <path d="M1677.65421,262.464277 C1683.32448,254.978908 1688.87559,247.404007 1694.27934,239.726886 L1695.76918,240.773766 C1690.35908,248.474856 1684.80163,256.072316 1679.12501,263.577425 L1677.65421,262.464277 Z" id="Fill-97" fill="#FFFFFF"></path>
                    <path d="M1702.26806,228.129992 C1707.51316,220.34501 1712.59469,212.450053 1717.46117,204.426087 L1718.98908,205.351007 C1714.11273,213.406697 1709.02274,221.329853 1703.76988,229.140214 L1702.26806,228.129992 Z" id="Fill-99" fill="#FFFFFF"></path>
                    <path d="M1724.58828,192.290173 C1729.22067,184.132967 1733.59288,175.827718 1737.64922,167.37231 L1739.23001,168.128743 C1735.16028,176.627154 1730.77608,184.971176 1726.1317,193.165745 L1724.58828,192.290173 Z" id="Fill-101" fill="#FFFFFF"></path>
                    <path d="M1743.46304,154.569071 C1747.14709,145.95152 1750.43983,137.164777 1753.12125,128.195446 L1754.76903,128.68681 C1752.07139,137.734392 1748.76244,146.582468 1745.06428,155.252892 L1743.46304,154.569071 Z" id="Fill-103" fill="#FFFFFF"></path>
                    <path d="M1756.62544,114.611665 C1758.58275,105.475256 1759.76376,96.1513254 1759.64108,86.8259848 L1761.32693,86.8020158 C1761.45878,96.2873845 1760.26649,105.73398 1758.29508,114.969789 L1756.62544,114.611665 Z" id="Fill-105" fill="#FFFFFF"></path>
                    <path d="M1758.37031,72.9337088 C1757.56228,68.3549299 1756.34461,63.8501728 1754.67427,59.5174284 C1753.00675,55.1853889 1750.88375,51.0295919 1748.3377,47.1487331 L1749.71966,46.242142 C1752.3334,50.2195816 1754.51351,54.4804191 1756.22615,58.918909 C1757.94232,63.356694 1759.19102,67.9671965 1760.0202,72.6425562 L1758.37031,72.9337088 Z" id="Fill-107" fill="#FFFFFF"></path>
                    <path d="M1739.53961,36.3803193 C1732.95203,29.8064759 1725.11575,24.5530409 1716.78238,20.3732749 L1717.50791,18.9252669 C1725.96537,23.1593156 1733.95536,28.4994619 1740.69947,35.2185291 L1739.53961,36.3803193 Z" id="Fill-109" fill="#FFFFFF"></path>
                    <path d="M1703.91922,14.8377815 C1695.14236,11.6125446 1686.05879,9.23256657 1676.87227,7.41162956 L1677.17898,5.85505623 C1686.43178,7.681633 1695.59573,10.0735956 1704.47482,13.3277362 L1703.91922,14.8377815 Z" id="Fill-111" fill="#FFFFFF"></path>
                    <path d="M1663.01001,5.09206741 C1653.72478,3.80056272 1644.37257,2.97574805 1635.00415,2.48015428 L1635.08594,0.928515732 C1644.49173,1.41846975 1653.88766,2.24046454 1663.22717,3.53126426 L1663.01001,5.09206741 Z" id="Fill-113" fill="#FFFFFF"></path>
                    <g id="Group-117" transform="translate(1592.075230, 0.000000)">
                        <mask id="mask-2" fill="white">
                            <use xlink:href="#path-1"></use>
                        </mask>
                        <g id="Clip-116"></g>
                        <path d="M28.8632381,1.98103565 C19.4793013,1.80197332 10.0890188,1.90771879 0.705082033,2.23059496 L0.65220088,0.711385032 C10.0594054,0.380049223 19.476481,0.265844114 28.8921465,0.438561717 L28.8632381,1.98103565 Z" id="Fill-115" fill="#FFFFFF" mask="url(#mask-2)"></path>
                    </g>
                    <path d="M1578.71068,2.87528985 C1569.33521,3.40683709 1559.9696,4.13154605 1550.6181,5.0106434 L1550.47849,3.52950183 C1559.84551,2.64123988 1569.22944,1.90807128 1578.62537,1.36806441 L1578.71068,2.87528985 Z" id="Fill-118" fill="#FFFFFF"></path>
                    <path d="M1536.60198,6.44215509 C1527.26529,7.47000106 1517.94269,8.63743106 1508.63561,9.92047611 L1508.43678,8.47951783 C1517.75444,7.18730817 1527.08902,6.01071356 1536.44052,4.97440795 L1536.60198,6.44215509 Z" id="Fill-120" fill="#FFFFFF"></path>
                    <path d="M1494.68747,11.930768 C1485.3959,13.3266082 1476.12054,14.8288989 1466.85999,16.4221306 L1466.61815,15.0206507 C1475.88645,13.4189593 1485.17097,11.907504 1494.47171,10.5032042 L1494.68747,11.930768 Z" id="Fill-122" fill="#FFFFFF"></path>
                    <polygon id="Fill-124" fill="#FFFFFF" points="1452.98165 18.8785979 1425.29097 24.1658715 1425.0181 22.8038698 1452.72853 17.4905124"></polygon>
                    <polygon id="Fill-126" fill="#FFFFFF" points="1411.47897 26.979547 1383.91732 32.9132778 1383.62189 31.5900495 1411.19835 25.6309397"></polygon>
                    <polygon id="Fill-128" fill="#FFFFFF" points="1370.16758 36.0202208 1342.72508 42.4911386 1342.41344 41.2052737 1369.86581 34.7096819"></polygon>
                    <polygon id="Fill-130" fill="#FFFFFF" points="1329.03253 45.845385 1301.70073 52.7724183 1301.3771 51.5239168 1328.71666 44.5722095"></polygon>
                    <polygon id="Fill-132" fill="#FFFFFF" points="1288.06134 56.3383671 1260.83108 63.6587735 1260.49898 62.4469304 1287.73419 55.10185"></polygon>
                    <polygon id="Fill-134" fill="#FFFFFF" points="1247.24027 67.4082964 1220.10448 75.0734331 1219.76604 73.8968385 1246.90535 66.2077328"></polygon>
                    <polygon id="Fill-136" fill="#FFFFFF" points="1206.5583 78.9841826 1179.50995 86.9531613 1179.16869 85.8125202 1206.21986 77.8195725"></polygon>
                    <polygon id="Fill-138" fill="#FFFFFF" points="1166.00607 91.0078657 1139.0381 99.2489627 1138.69613 98.1428651 1165.66411 89.878504"></polygon>
                    <polygon id="Fill-140" fill="#FFFFFF" points="1125.57371 103.432959 1098.68117 111.919385 1098.33921 110.847831 1125.23104 102.33814"></polygon>
                    <polygon id="Fill-142" fill="#FFFFFF" points="1085.25352 116.219489 1058.4322 124.927981 1058.09165 123.890266 1084.91156 115.159215"></polygon>
                    <polygon id="Fill-144" fill="#FFFFFF" points="1045.03875 129.334748 1018.2837 138.246976 1017.94597 137.243099 1044.6989 128.308312"></polygon>
                    <polygon id="Fill-146" fill="#FFFFFF" points="1004.92275 142.750535 978.231165 151.85099 977.896956 150.880951 1004.58572 141.757937"></polygon>
                    <polygon id="Fill-148" fill="#FFFFFF" points="964.906595 156.461633 938.308081 165.827862 937.975282 164.893777 964.572386 155.503579"></polygon>
                    <polygon id="Fill-150" fill="#FFFFFF" points="925.035334 170.584434 898.544697 180.24957 898.212604 179.352144 924.702536 169.662334"></polygon>
                    <polygon id="Fill-152" fill="#FFFFFF" points="885.3273 185.160249 858.953001 195.139097 858.622318 194.277624 884.995911 184.274807"></polygon>
                    <polygon id="Fill-154" fill="#FFFFFF" points="845.796946 200.210015 819.549563 210.518084 819.220994 209.692564 845.466968 199.360526"></polygon>
                    <polygon id="Fill-156" fill="#FFFFFF" points="806.459362 215.756573 780.350174 226.408667 780.023016 225.619806 806.131499 214.943038"></polygon>
                    <polygon id="Fill-158" fill="#FFFFFF" points="767.331751 231.823893 741.373451 242.837636 741.049113 242.084728 767.006003 231.047016"></polygon>
                    <polygon id="Fill-160" fill="#FFFFFF" points="728.433504 248.43855 702.639488 259.832272 702.31797 259.116023 728.110576 247.697627"></polygon>
                    <polygon id="Fill-162" fill="#FFFFFF" points="689.786195 265.627688 664.171975 277.421128 663.853983 276.740832 689.466087 264.922718"></polygon>
                    <polygon id="Fill-164" fill="#FFFFFF" points="651.413586 283.42162 625.998199 295.635927 625.683732 294.992289 651.096299 282.753308"></polygon>
                    <polygon id="Fill-166" fill="#FFFFFF" points="613.342963 301.85235 588.145447 314.510083 587.835211 313.903104 613.029907 301.220697"></polygon>
                    <polygon id="Fill-168" fill="#FFFFFF" points="575.60521 320.954706 550.648127 334.080538 550.342826 333.509513 575.296384 320.359006"></polygon>
                    <polygon id="Fill-170" fill="#FFFFFF" points="538.234523 340.765485 513.54396 354.384797 513.243595 353.85043 537.930633 340.205739"></polygon>
                </g>
                <path d="M1724.21329,245.600975 C1724.21329,265.262583 1708.27209,281.20195 1688.60664,281.20195 C1668.9412,281.20195 1653,265.262583 1653,245.600975 C1653,225.939367 1668.9412,210 1688.60664,210 C1708.27209,210 1724.21329,225.939367 1724.21329,245.600975" id="Fill-207" fill="#FFFFFF"></path>
            </g>
        </g>
    </g>
</svg>