<?xml version="1.0" encoding="UTF-8" standalone="no"?>
<svg width="629px" height="799px" viewBox="0 0 629 799" version="1.1" xmlns="http://www.w3.org/2000/svg" xmlns:xlink="http://www.w3.org/1999/xlink">
    <!-- Generator: Sketch 43.2 (39069) - http://www.bohemiancoding.com/sketch -->
    <title>Right</title>
    <desc>Created with Sketch.</desc>
    <defs></defs>
    <g id="Case-studies" stroke="none" stroke-width="1" fill="none" fill-rule="evenodd">
        <g id="Home---Drive" transform="translate(-723.000000, 0.000000)" fill="#FFD44A">
            <path d="M828.862097,801.954 C830.172097,805.06 831.482097,808.165 832.793097,811.271 C818.313097,776.709 808.397097,740.434 803.281097,703.313 C803.745097,706.769 804.210097,710.225 804.674097,713.681 C800.622097,683.3 799.608097,652.51 803.536097,622.061 C803.072097,625.517 802.607097,628.973 802.143097,632.429 C805.061097,610.974 810.531097,590.083 818.884097,570.099 C817.574097,573.204 816.263097,576.31 814.953097,579.415 C823.971097,558.216 835.888097,538.477 849.962097,520.259 C847.929097,522.89 845.896097,525.521 843.863097,528.152 C861.996097,504.923 883.335097,484.477 906.587097,466.425 C903.956097,468.458 901.325097,470.49 898.694097,472.523 C935.578097,444.105 976.715097,422.441 1019.4871,404.32 C1016.3821,405.63 1013.2761,406.941 1010.1711,408.251 C1053.9531,389.812 1099.0711,374.885 1143.8631,359.146 C1165.9841,351.373 1188.0391,343.392 1209.8031,334.663 C1231.8901,325.805 1254.3731,316.823 1274.4851,303.923 C1296.1471,290.029 1315.1671,272.45 1328.5561,250.303 C1341.6081,228.715 1347.6901,204.898 1350.4211,180.09 C1352.8461,158.056 1350.2781,135.116 1345.1481,113.642 C1339.8981,91.66 1330.6261,70.314 1319.2071,50.857 C1293.0721,6.329 1255.2981,-29.746 1217.8001,-64.578 C1210.2991,-71.545 1200.6041,-76 1190.2221,-76 C1180.6571,-76 1169.2311,-71.752 1162.6451,-64.578 C1148.7871,-49.481 1146.6801,-24.253 1162.6451,-9.423 C1189.2101,15.252 1215.7931,40.155 1238.0771,68.879 C1236.0441,66.248 1234.0111,63.617 1231.9791,60.986 C1244.7961,77.685 1256.1111,95.587 1264.4221,114.97 C1263.1121,111.865 1261.8011,108.759 1260.4911,105.654 C1266.7511,120.597 1271.0571,136.217 1273.2541,152.272 C1272.7901,148.815 1272.3261,145.359 1271.8611,141.904 C1273.6431,155.828 1273.7961,169.843 1271.9691,183.771 C1272.4341,180.315 1272.8981,176.859 1273.3631,173.403 C1271.7751,184.595 1268.9231,195.48 1264.5781,205.922 C1265.8891,202.816 1267.1991,199.711 1268.5101,196.605 C1264.8131,205.186 1260.1861,213.229 1254.5571,220.688 C1256.5901,218.057 1258.6231,215.426 1260.6551,212.795 C1254.4031,220.846 1247.1531,227.913 1239.1651,234.23 C1241.7961,232.198 1244.4271,230.165 1247.0581,228.132 C1230.5601,240.876 1211.7831,250.006 1192.6621,258.09 C1195.7681,256.779 1198.8731,255.469 1201.9781,254.159 C1097.7041,297.894 983.898097,322.313 888.153097,384.714 C843.653097,413.716 804.138097,449.285 773.707097,492.988 C740.747097,540.322 724.459097,596.509 723.107097,653.94 C721.462097,723.805 738.870097,793.418 768.241097,856.452 C772.148097,864.835 782.965097,872.011 791.549097,874.375 C800.884097,876.946 813.315097,875.785 821.601097,870.443 C829.928097,865.075 837.259097,857.08 839.524097,847.136 C841.975097,836.375 840.241097,827.06 835.592097,817.084 C833.260097,812.079 831.017097,807.037 828.862097,801.954 Z" id="Right"></path>
        </g>
    </g>
</svg>