<?xml version="1.0" encoding="UTF-8" standalone="no"?>
<svg width="492px" height="188px" viewBox="0 0 492 188" version="1.1" xmlns="http://www.w3.org/2000/svg" xmlns:xlink="http://www.w3.org/1999/xlink">
    <!-- Generator: Sketch 44.1 (41455) - http://www.bohemiancoding.com/sketch -->
    <title>Keyboard_1x</title>
    <desc>Created with Sketch.</desc>
    <defs></defs>
    <g id="Assets" stroke="none" stroke-width="1" fill="none" fill-rule="evenodd">
        <g id="Keyboard" transform="translate(-66.000000, -13.000000)" fill="#FFFFFF">
            <g transform="translate(67.000000, 12.000000)">
                <rect id="Rectangle-2" stroke="#FFFFFF" fill-opacity="0.300000012" opacity="0.400000006" x="0" y="23" width="29" height="29" rx="2"></rect>
                <rect id="Rectangle-2" stroke="#FFFFFF" fill-opacity="0.300000012" x="34" y="23" width="29" height="29" rx="2"></rect>
                <rect id="Rectangle-2" stroke="#FFFFFF" fill-opacity="0.300000012" x="68" y="23" width="29" height="29" rx="2"></rect>
                <rect id="Rectangle-2" stroke="#FFFFFF" fill-opacity="0.300000012" x="102" y="23" width="29" height="29" rx="2"></rect>
                <rect id="Rectangle-2" stroke="#FFFFFF" fill-opacity="0.300000012" x="136" y="23" width="29" height="29" rx="2"></rect>
                <rect id="Rectangle-2" stroke="#FFFFFF" fill-opacity="0.300000012" x="170" y="23" width="29" height="29" rx="2"></rect>
                <rect id="Rectangle-2" stroke="#FFFFFF" fill-opacity="0.300000012" x="204" y="23" width="29" height="29" rx="2"></rect>
                <rect id="Rectangle-2" stroke="#FFFFFF" fill-opacity="0.300000012" x="238" y="23" width="29" height="29" rx="2"></rect>
                <rect id="Rectangle-2" stroke="#FFFFFF" fill-opacity="0.300000012" x="272" y="23" width="29" height="29" rx="2"></rect>
                <rect id="Rectangle-2" stroke="#FFFFFF" fill-opacity="0.300000012" x="306" y="23" width="29" height="29" rx="2"></rect>
                <rect id="Rectangle-2" stroke="#FFFFFF" fill-opacity="0.300000012" x="340" y="23" width="29" height="29" rx="2"></rect>
                <rect id="Rectangle-2" stroke="#FFFFFF" fill-opacity="0.300000012" opacity="0.400000006" x="374" y="23" width="29" height="29" rx="2"></rect>
                <rect id="Rectangle-2" stroke="#FFFFFF" fill-opacity="0.300000012" opacity="0.400000006" x="408" y="23" width="29" height="29" rx="2"></rect>
                <rect id="Rectangle-2" stroke="#FFFFFF" fill-opacity="0.300000012" opacity="0.400000006" x="53" y="57" width="29" height="29" rx="2"></rect>
                <rect id="Rectangle-2-Copy" stroke="#FFFFFF" fill-opacity="0.300000012" opacity="0.400000006" x="0" y="57" width="48" height="29" rx="2"></rect>
                <rect id="Rectangle-2" stroke="#FFFFFF" fill-opacity="0.300000012" opacity="0.400000006" x="87" y="57" width="29" height="29" rx="2"></rect>
                <rect id="Rectangle-2" stroke="#FFFFFF" fill-opacity="0.300000012" opacity="0.400000006" x="121" y="57" width="29" height="29" rx="2"></rect>
                <rect id="Rectangle-2" stroke="#FFFFFF" fill-opacity="0.300000012" opacity="0.400000006" x="155" y="57" width="29" height="29" rx="2"></rect>
                <rect id="Rectangle-2" stroke="#FFFFFF" fill-opacity="0.300000012" opacity="0.400000006" x="189" y="57" width="29" height="29" rx="2"></rect>
                <rect id="Rectangle-2" stroke="#FFFFFF" fill-opacity="0.300000012" opacity="0.400000006" x="223" y="57" width="29" height="29" rx="2"></rect>
                <rect id="Rectangle-2" stroke="#FFFFFF" fill-opacity="0.300000012" opacity="0.400000006" x="257" y="57" width="29" height="29" rx="2"></rect>
                <rect id="Rectangle-2" stroke="#FFFFFF" fill-opacity="0.300000012" opacity="0.400000006" x="291" y="57" width="29" height="29" rx="2"></rect>
                <rect id="Rectangle-2" stroke="#FFFFFF" fill-opacity="0.300000012" opacity="0.400000006" x="325" y="57" width="29" height="29" rx="2"></rect>
                <rect id="Rectangle-2" stroke="#FFFFFF" fill-opacity="0.300000012" opacity="0.400000006" x="359" y="57" width="29" height="29" rx="2"></rect>
                <rect id="Rectangle-2" stroke="#FFFFFF" fill-opacity="0.300000012" opacity="0.400000006" x="393" y="57" width="29" height="29" rx="2"></rect>
                <rect id="Rectangle-2" stroke="#FFFFFF" fill-opacity="0.300000012" opacity="0.400000006" x="427" y="57" width="29" height="29" rx="2"></rect>
                <rect id="Rectangle-2" stroke="#FFFFFF" fill-opacity="0.300000012" opacity="0.400000006" x="461" y="57" width="29" height="29" rx="2"></rect>
                <rect id="Rectangle-2" stroke="#FFFFFF" fill-opacity="0.300000012" opacity="0.400000006" x="60" y="91" width="29" height="29" rx="2"></rect>
                <rect id="Rectangle-2-Copy-2" stroke="#FFFFFF" fill-opacity="0.300000012" opacity="0.400000006" x="0" y="91" width="55" height="29" rx="2"></rect>
                <rect id="Rectangle-2" stroke="#FFFFFF" fill-opacity="0.300000012" opacity="0.400000006" x="94" y="91" width="29" height="29" rx="2"></rect>
                <rect id="Rectangle-2" stroke="#FFFFFF" fill-opacity="0.300000012" opacity="0.400000006" x="128" y="91" width="29" height="29" rx="2"></rect>
                <rect id="Rectangle-2" stroke="#FFFFFF" fill-opacity="0.300000012" opacity="0.400000006" x="162" y="91" width="29" height="29" rx="2"></rect>
                <rect id="Rectangle-2" stroke="#FFFFFF" fill-opacity="0.300000012" opacity="0.400000006" x="196" y="91" width="29" height="29" rx="2"></rect>
                <rect id="Rectangle-2" stroke="#FFFFFF" fill-opacity="0.300000012" opacity="0.400000006" x="230" y="91" width="29" height="29" rx="2"></rect>
                <rect id="Rectangle-2" stroke="#FFFFFF" fill-opacity="0.300000012" opacity="0.400000006" x="264" y="91" width="29" height="29" rx="2"></rect>
                <rect id="Rectangle-2" stroke="#FFFFFF" fill-opacity="0.300000012" opacity="0.400000006" x="298" y="91" width="29" height="29" rx="2"></rect>
                <rect id="Rectangle-2" stroke="#FFFFFF" fill-opacity="0.300000012" opacity="0.400000006" x="332" y="91" width="29" height="29" rx="2"></rect>
                <rect id="Rectangle-2" stroke="#FFFFFF" fill-opacity="0.300000012" opacity="0.400000006" x="366" y="91" width="29" height="29" rx="2"></rect>
                <rect id="Rectangle-2" stroke="#FFFFFF" fill-opacity="0.300000012" opacity="0.400000006" x="400" y="91" width="29" height="29" rx="2"></rect>
                <rect id="Rectangle-2" stroke="#FFFFFF" fill-opacity="0.300000012" opacity="0.400000006" x="71" y="125" width="29" height="29" rx="2"></rect>
                <rect id="Rectangle-2-Copy-3" stroke="#FFFFFF" fill-opacity="0.300000012" opacity="0.400000006" x="0" y="125" width="66" height="29" rx="2"></rect>
                <rect id="Rectangle-2-Copy-11" stroke="#FFFFFF" fill-opacity="0.300000012" opacity="0.400000006" x="411" y="125" width="79" height="29" rx="2"></rect>
                <rect id="Rectangle-2-Copy-12" stroke="#FFFFFF" fill-opacity="0.300000012" x="434" y="91" width="56" height="29" rx="2"></rect>
                <rect id="Rectangle-2-Copy-13" stroke="#FFFFFF" fill-opacity="0.300000012" x="442" y="23" width="48" height="29" rx="2"></rect>
                <rect id="Rectangle-2" stroke="#FFFFFF" fill-opacity="0.300000012" opacity="0.400000006" x="105" y="125" width="29" height="29" rx="2"></rect>
                <rect id="Rectangle-2" stroke="#FFFFFF" fill-opacity="0.300000012" opacity="0.400000006" x="139" y="125" width="29" height="29" rx="2"></rect>
                <rect id="Rectangle-2" stroke="#FFFFFF" fill-opacity="0.300000012" opacity="0.400000006" x="173" y="125" width="29" height="29" rx="2"></rect>
                <rect id="Rectangle-2" stroke="#FFFFFF" fill-opacity="0.300000012" opacity="0.400000006" x="207" y="125" width="29" height="29" rx="2"></rect>
                <rect id="Rectangle-2" stroke="#FFFFFF" fill-opacity="0.300000012" opacity="0.400000006" x="241" y="125" width="29" height="29" rx="2"></rect>
                <rect id="Rectangle-2" stroke="#FFFFFF" fill-opacity="0.300000012" opacity="0.400000006" x="275" y="125" width="29" height="29" rx="2"></rect>
                <rect id="Rectangle-2" stroke="#FFFFFF" fill-opacity="0.300000012" opacity="0.400000006" x="309" y="125" width="29" height="29" rx="2"></rect>
                <rect id="Rectangle-2" stroke="#FFFFFF" fill-opacity="0.300000012" x="343" y="125" width="29" height="29" rx="2"></rect>
                <rect id="Rectangle-2" stroke="#FFFFFF" fill-opacity="0.300000012" opacity="0.400000006" x="377" y="125" width="29" height="29" rx="2"></rect>
                <rect id="Rectangle-2" stroke="#FFFFFF" fill-opacity="0.300000012" opacity="0.400000006" x="31" y="159" width="27" height="29" rx="2"></rect>
                <rect id="Rectangle-2-Copy-4" stroke="#FFFFFF" fill-opacity="0.300000012" opacity="0.400000006" x="0" y="159" width="26" height="29" rx="2"></rect>
                <rect id="Rectangle-2-Copy-3" stroke="#FFFFFF" fill-opacity="0.300000012" opacity="0.400000006" x="139" y="159" width="165" height="29" rx="2"></rect>
                <rect id="Rectangle-2" stroke="#FFFFFF" fill-opacity="0.300000012" opacity="0.400000006" x="63" y="159" width="29" height="29" rx="2"></rect>
                <rect id="Rectangle-2-Copy-6" stroke="#FFFFFF" fill-opacity="0.300000012" opacity="0.400000006" x="351" y="159" width="29" height="29" rx="2"></rect>
                <rect id="Rectangle-2-Copy-7" stroke="#FFFFFF" fill-opacity="0.300000012" x="385" y="173" width="31.9202714" height="15" rx="2"></rect>
                <rect id="Rectangle-2-Copy-8" stroke="#FFFFFF" fill-opacity="0.300000012" x="421.323067" y="174" width="31.9202714" height="14" rx="2"></rect>
                <rect id="Rectangle-2-Copy-10" stroke="#FFFFFF" fill-opacity="0.300000012" x="421.323067" y="159" width="31.9202714" height="15" rx="2"></rect>
                <rect id="Rectangle-2-Copy-9" stroke="#FFFFFF" fill-opacity="0.300000012" x="458" y="173" width="31.9202714" height="15" rx="2"></rect>
                <rect id="Rectangle-2" stroke="#FFFFFF" fill-opacity="0.300000012" opacity="0.400000006" x="97" y="159" width="37" height="29" rx="2"></rect>
                <rect id="Rectangle-2-Copy-5" stroke="#FFFFFF" fill-opacity="0.300000012" opacity="0.400000006" x="309" y="159" width="37" height="29" rx="2"></rect>
                <text id="1" font-family="ApolloConsole-Regular, ApolloConsole" font-size="12" font-weight="normal" letter-spacing="-0.208333343">
                    <tspan x="39" y="43">1</tspan>
                </text>
                <text id="2" font-family="ApolloConsole-Regular, ApolloConsole" font-size="12" font-weight="normal" letter-spacing="-0.208333343">
                    <tspan x="73" y="43">2</tspan>
                </text>
                <text id="3" font-family="ApolloConsole-Regular, ApolloConsole" font-size="12" font-weight="normal" letter-spacing="-0.208333343">
                    <tspan x="107" y="43">3</tspan>
                </text>
                <text id="4" font-family="ApolloConsole-Regular, ApolloConsole" font-size="12" font-weight="normal" letter-spacing="-0.208333343">
                    <tspan x="141" y="43">4</tspan>
                </text>
                <text id="5" font-family="ApolloConsole-Regular, ApolloConsole" font-size="12" font-weight="normal" letter-spacing="-0.208333343">
                    <tspan x="175" y="43">5</tspan>
                </text>
                <text id="6" font-family="ApolloConsole-Regular, ApolloConsole" font-size="12" font-weight="normal" letter-spacing="-0.208333343">
                    <tspan x="209" y="43">6</tspan>
                </text>
                <text id="7" font-family="ApolloConsole-Regular, ApolloConsole" font-size="12" font-weight="normal" letter-spacing="-0.208333343">
                    <tspan x="243" y="43">7</tspan>
                </text>
                <text id="8" font-family="ApolloConsole-Regular, ApolloConsole" font-size="12" font-weight="normal" letter-spacing="-0.208333343">
                    <tspan x="277" y="43">8</tspan>
                </text>
                <text id="9" font-family="ApolloConsole-Regular, ApolloConsole" font-size="12" font-weight="normal" letter-spacing="-0.208333343">
                    <tspan x="311" y="43">9</tspan>
                </text>
                <text id="0" font-family="ApolloConsole-Regular, ApolloConsole" font-size="12" font-weight="normal" letter-spacing="-0.208333343">
                    <tspan x="345" y="43">0</tspan>
                </text>
                <text id="Del" font-family="ApolloConsole-Regular, ApolloConsole" font-size="12" font-weight="normal" letter-spacing="-0.208333343">
                    <tspan x="447" y="43">Del</tspan>
                </text>
                <text id="Enter" font-family="ApolloConsole-Regular, ApolloConsole" font-size="12" font-weight="normal" letter-spacing="-0.208333343">
                    <tspan x="439" y="111">Enter</tspan>
                </text>
                <text id="." font-family="ApolloConsole-Regular, ApolloConsole" font-size="12" font-weight="normal" letter-spacing="-0.208333343">
                    <tspan x="348" y="145">.</tspan>
                </text>
                <polygon id="Triangle" transform="translate(478.000000, 181.500000) rotate(90.000000) translate(-478.000000, -181.500000) " points="478 178.5 480.5 184.5 475.5 184.5"></polygon>
                <polygon id="Triangle-Copy" transform="translate(396.000000, 181.500000) scale(-1, 1) rotate(90.000000) translate(-396.000000, -181.500000) " points="396 178.5 398.5 184.5 393.5 184.5"></polygon>
                <polygon id="Triangle-Copy-2" transform="translate(437.500000, 166.000000) scale(-1, 1) translate(-437.500000, -166.000000) " points="437.5 163 440 169 435 169"></polygon>
                <polygon id="Triangle-Copy-3" transform="translate(437.500000, 182.000000) scale(-1, -1) translate(-437.500000, -182.000000) " points="437.5 179 440 185 435 185"></polygon>
                <text id="Available-keys" font-family="ApolloConsole-Regular, ApolloConsole" font-size="12" font-weight="normal" letter-spacing="-0.2083333">
                    <tspan x="0" y="10">Available keys</tspan>
                </text>
            </g>
        </g>
    </g>
</svg>