<?xml version="1.0" standalone="no"?>
<!DOCTYPE svg PUBLIC "-//W3C//DTD SVG 1.1//EN" "http://www.w3.org/Graphics/SVG/1.1/DTD/svg11.dtd" >
<svg xmlns="http://www.w3.org/2000/svg">
<metadata></metadata>
<defs>
<font id="apolloconsoleregular" horiz-adv-x="1228" >
<font-face units-per-em="2048" ascent="1638" descent="-410" />
<missing-glyph horiz-adv-x="500" />
<glyph horiz-adv-x="0" />
<glyph horiz-adv-x="0" />
<glyph unicode="&#xd;" />
<glyph unicode=" " />
<glyph unicode="!" d="M614 0h205v205h-205v-205zM614 410h205v1024h-205v-1024z" />
<glyph unicode="&#x22;" d="M410 819h204v615h-204v-615zM819 819h205v615h-205v-615z" />
<glyph unicode="#" d="M205 410h205v-410h204v410h205v-410h205v410h205v204h-205v205h205v205h-205v410h-205v-410h-205v410h-204v-410h-205v-205h205v-205h-205v-204zM614 614v205h205v-205h-205z" />
<glyph unicode="$" d="M205 205h102v-103h103v-102h614v102h102v103h103v409h-103v103h-102v102h-205v410h103v-103h102v-102h205v205h-103v102h-102v103h-614v-103h-103v-102h-102v-410h102v-102h103v-103h204v-409h-102v102h-102v103h-205v-205zM410 922v204h102v103h102v-410h-102v103h-102z M819 205v409h103v-102h102v-205h-102v-102h-103z" />
<glyph unicode="%" d="M205 205h205v102h102v103h102v102h103v102h102v103h103v102h102v103h102v102h103v205h-205v-103h-102v-102h-103v-102h-102v-103h-103v-102h-102v-103h-102v-102h-103v-102h-102v-205zM205 1126h102v-102h205v102h102v205h-102v103h-205v-103h-102v-205zM819 102h103 v-102h204v102h103v205h-103v103h-204v-103h-103v-205z" />
<glyph unicode="&#x26;" d="M205 205h102v-103h103v-102h409v205h103v-103h102v-102h205v205h-103v102h-102v103h205v204h-205v-204h-102v102h-103v102h-102v205h102v410h-102v102h-103v103h-204v-103h-103v-102h-102v-410h102v-205h-102v-409zM410 307v205h204v-102h103v-103h102v-102h-307v102 h-102zM410 922v204h204v-204h-204z" />
<glyph unicode="'" d="M614 819h205v615h-205v-615z" />
<glyph unicode="(" d="M410 410h102v-103h102v-102h103v-103h102v-102h205v205h-102v102h-103v103h-102v102h-103v410h103v102h102v102h103v103h102v205h-205v-103h-102v-102h-103v-103h-102v-102h-102v-614z" />
<glyph unicode=")" d="M410 0h204v102h103v103h102v102h103v103h102v614h-102v102h-103v103h-102v102h-103v103h-204v-205h102v-103h102v-102h103v-102h102v-410h-102v-102h-103v-103h-102v-102h-102v-205z" />
<glyph unicode="*" d="M205 205h205v102h102v103h102v-410h205v410h103v-103h102v-102h205v205h-103v102h-102v102h-102v205h102v103h102v102h103v205h-205v-103h-102v-102h-103v410h-205v-410h-102v102h-102v103h-205v-205h102v-102h103v-103h102v-205h-102v-102h-103v-102h-102v-205z" />
<glyph unicode="+" d="M205 614h409v-409h205v409h410v205h-410v410h-205v-410h-409v-205z" />
<glyph unicode="," d="M410 0h204v102h103v103h102v409h-205v-307h-102v-102h-102v-205z" />
<glyph unicode="-" d="M205 614h1024v205h-1024v-205z" />
<glyph unicode="." d="M614 0h205v205h-205v-205z" />
<glyph unicode="/" d="M205 205h205v102h102v103h102v102h103v102h102v103h103v102h102v103h102v102h103v205h-205v-103h-102v-102h-103v-102h-102v-103h-103v-102h-102v-103h-102v-102h-103v-102h-102v-205z" />
<glyph unicode="0" d="M205 205v1024h102v102h103v103h614v-103h102v-102h103v-1024h-103v-103h-102v-102h-614v102h-103v103h-102zM410 614h102v103h102v102h103v103h102v102h103v205h-410v-103h-102v-512zM512 205h410v102h102v512h-102v-102h-103v-103h-102v-102h-103v-102h-102v-205z" />
<glyph unicode="1" d="M410 0h614v205h-205v1229h-205v-103h-102v-102h-102v-205h204v-819h-204v-205z" />
<glyph unicode="2" d="M205 0h1024v205h-819v102h102v103h102v102h103v102h307v103h102v102h103v410h-103v102h-102v103h-614v-103h-103v-102h-102v-205h205v102h102v103h410v-103h102v-204h-102v-103h-308v-102h-102v-103h-102v-102h-103v-102h-102v-410z" />
<glyph unicode="3" d="M205 205h102v-103h103v-102h614v102h102v103h103v409h-103v103h-102v205h102v102h103v410h-1024v-205h819v-103h-102v-102h-103v-102h-102v-103h-103v-205h308v-102h102v-205h-102v-102h-410v102h-102v103h-205v-205z" />
<glyph unicode="4" d="M205 410h614v-410h205v410h205v204h-205v820h-205v-103h-102v-102h-103v-103h-102v-102h-102v-102h-103v-103h-102v-409zM410 614v103h102v102h102v103h103v102h102v-410h-409z" />
<glyph unicode="5" d="M205 205h102v-103h103v-102h614v102h102v103h103v614h-103v103h-102v102h-614v205h819v205h-1024v-615h717v-102h102v-410h-102v-102h-410v102h-102v103h-205v-205z" />
<glyph unicode="6" d="M205 205h102v-103h103v-102h614v102h102v103h103v409h-103v103h-102v102h-614v103h102v102h102v102h103v103h307v205h-410v-103h-102v-102h-102v-103h-103v-102h-102v-819zM410 307v307h512v-102h102v-205h-102v-102h-410v102h-102z" />
<glyph unicode="7" d="M205 1229h819v-103h-102v-102h-103v-102h-102v-103h-103v-102h-102v-103h-102v-614h204v512h103v102h102v103h103v102h102v103h102v102h103v410h-1024v-205z" />
<glyph unicode="8" d="M205 205h102v-103h103v-102h614v102h102v103h103v409h-103v205h103v410h-103v102h-102v103h-614v-103h-103v-102h-102v-410h102v-205h-102v-409zM410 307v205h102v102h410v-102h102v-205h-102v-102h-410v102h-102zM410 922v204h102v103h410v-103h102v-204h-102v-103h-410 v103h-102z" />
<glyph unicode="9" d="M205 819h102v-102h103v-103h614v-102h-102v-102h-103v-103h-102v-102h-307v-205h409v102h103v103h102v102h102v103h103v819h-103v102h-102v103h-614v-103h-103v-102h-102v-410zM410 922v204h102v103h410v-103h102v-307h-512v103h-102z" />
<glyph unicode=":" d="M614 205h205v205h-205v-205zM614 819h205v205h-205v-205z" />
<glyph unicode=";" d="M410 0v-205h204v103h103v102h102v410h-205v-308h-102v-102h-102zM614 819h205v205h-205v-205z" />
<glyph unicode="&#x3c;" d="M205 614h102v-102h103v-102h102v-103h102v-102h103v-103h102v-102h205v205h-102v102h-103v103h-102v102h-103v102h-102v205h102v103h103v102h102v102h103v103h102v205h-205v-103h-102v-102h-103v-103h-102v-102h-102v-102h-103v-103h-102v-205z" />
<glyph unicode="=" d="M205 205h1024v205h-1024v-205zM205 819h1024v205h-1024v-205z" />
<glyph unicode="&#x3e;" d="M410 0h204v102h103v103h102v102h103v103h102v102h102v102h103v205h-103v103h-102v102h-102v102h-103v103h-102v102h-103v103h-204v-205h102v-103h102v-102h103v-102h102v-103h103v-205h-103v-102h-102v-102h-103v-103h-102v-102h-102v-205z" />
<glyph unicode="?" d="M205 1024h205v102h102v103h410v-205h-103v-102h-102v-103h-103v-409h205v307h103v102h102v103h102v102h103v205h-103v102h-102v103h-614v-103h-103v-102h-102v-205zM614 0h205v205h-205v-205z" />
<glyph unicode="@" d="M205 205h102v-103h103v-102h614v205h-512v102h-102v819h102v103h410v-103h102v-102h-307v-102h-103v-410h103v-102h409v102h103v717h-103v102h-102v103h-614v-103h-103v-102h-102v-1024zM819 614v205h205v-205h-205z" />
<glyph unicode="A" d="M205 0h205v410h614v-410h205v1024h-103v102h-102v103h-102v102h-103v103h-205v-103h-102v-102h-102v-103h-103v-102h-102v-1024zM410 614v308h102v102h102v102h205v-102h103v-102h102v-308h-614z" />
<glyph unicode="B" d="M205 0h819v102h102v103h103v409h-103v205h103v410h-103v102h-102v103h-819v-1434zM410 205v409h512v-102h102v-205h-102v-102h-512zM410 811v418h512v-103h102v-204h-102v-103z" />
<glyph unicode="C" d="M205 205h102v-103h103v-102h614v102h102v103h103v205h-205v-103h-102v-102h-410v102h-102v819h102v99l410 4v-103h102v-102h205v205h-103v102h-102v103h-614v-103h-103v-102h-102v-1024z" />
<glyph unicode="D" d="M205 0h819v102h102v103h103v1024h-103v102h-102v103h-819v-1434zM410 205v1024h512v-103h102v-819h-102v-102h-512z" />
<glyph unicode="E" d="M205 0h1024v205h-819v409h614v197h-614v418h819v205h-1024v-1434z" />
<glyph unicode="F" d="M205 0h205v614h614v197h-614v418h819v205h-1024v-1434z" />
<glyph unicode="G" d="M205 205h102v-103h103v-102h819v614h-410v-204h205v-205h-461v51h-102v102h-51v768h102v103h410v-103h102v-102h205v205h-103v102h-102v103h-614v-103h-103v-102h-102v-1024z" />
<glyph unicode="H" d="M205 0h205v614h614v-614h205v1434h-205v-615h-614v615h-205v-1434z" />
<glyph unicode="I" d="M410 0h614v205h-205v1024h205v205h-614v-205h204v-1024h-204v-205z" />
<glyph unicode="J" d="M205 205h102v-103h103v-102h614v102h102v103h103v1229h-205v-1127h-102v-102h-410v102h-102v103h-205v-205z" />
<glyph unicode="K" d="M205 0h205v614h102v-102h102v-102h103v-103h102v-102h103v-103h102v-102h205v205h-103v102h-102v103h-102v102h-103v102h-102v205h102v103h103v102h102v102h102v103h103v205h-205v-103h-102v-102h-103v-103h-102v-102h-103v-102h-102v-103h-102v615h-205v-1434z" />
<glyph unicode="L" d="M205 0h1024v205h-819v1229h-205v-1434z" />
<glyph unicode="M" d="M205 0h205v1024h102v-102h102v-103h205v103h103v102h102v-1024h205v1434h-205v-103h-102v-102h-103v-103h-205v103h-102v102h-102v103h-205v-1434z" />
<glyph unicode="N" d="M205 0h205v819h102v-102h102v-103h103v-102h102v-102h103v-103h102v-307h205v1434h-205v-820h-102v103h-103v102h-102v103h-103v102h-102v102h-102v308h-205v-1434z" />
<glyph unicode="O" d="M205 205h102v-103h103v-102h614v102h102v103h103v1024h-103v102h-102v103h-614v-103h-103v-102h-102v-1024zM410 307v819h102v103h410v-103h102v-819h-102v-102h-410v102h-102z" />
<glyph unicode="P" d="M205 0h205v614h614v103h102v102h103v410h-103v102h-102v103h-819v-1434zM410 819v410h512v-103h102v-204h-102v-103h-512z" />
<glyph unicode="Q" d="M205 205h102v-103h103v-102h409v205h103v-103h102v-102h205v205h-103v102h-102v103h205v819h-103v102h-102v103h-614v-103h-103v-102h-102v-1024zM410 307v819h102v103h410v-103h102v-716h-102v102h-103v102h-205v-204h103v-103h102v-102h-307v102h-102z" />
<glyph unicode="R" d="M205 0h205v614h102v-104h102v-100h103v-103h102v-102h103v-103h102v-102h205v205h-103v102h-102v103h-102v102h-103v102h205v103h102v102h103v410h-103v102h-102v103h-819v-1434zM410 819v410h512v-103h102v-204h-102v-103h-512z" />
<glyph unicode="S" d="M205 205h102v-103h103v-102h614v102h102v103h103v409h-103v103h-102v102h-512v103h-102v204h102v103h410v-103h102v-102h205v205h-103v102h-102v103h-614v-103h-103v-102h-102v-410h102v-102h103v-103h512v-102h102v-205h-102v-102h-410v102h-102v103h-205v-205z" />
<glyph unicode="T" d="M205 1229h409v-1229h205v1229h410v205h-1024v-205z" />
<glyph unicode="U" d="M205 205h102v-103h103v-102h614v102h102v103h103v1229h-205v-1127h-102v-102h-410v102h-102v1127h-205v-1229z" />
<glyph unicode="V" d="M205 819h102v-102h103v-307h102v-103h102v-307h205v307h103v103h102v307h102v102h103v615h-205v-512h-102v-103h-103v-311h-205v311h-102v103h-102v512h-205v-615z" />
<glyph unicode="W" d="M205 205h102v-103h103v-102h204v102h205v-102h205v102h102v103h103v1229h-205v-1127h-205v512h-205v-512h-204v1127h-205v-1229z" />
<glyph unicode="X" d="M205 0h205v307h102v103h102v102h205v-102h103v-103h102v-307h205v410h-103v102h-102v102h-102v205h102v103h102v102h103v410h-205v-308h-102v-102h-103v-102h-205v102h-102v102h-102v308h-205v-410h102v-102h103v-103h102v-205h-102v-102h-103v-102h-102v-410z" />
<glyph unicode="Y" d="M205 1024h102v-102h103v-103h102v-102h102v-717h205v717h103v102h102v103h102v102h103v410h-205v-308h-102v-102h-103v-102h-205v102h-102v102h-102v308h-205v-410z" />
<glyph unicode="Z" d="M205 0h1024v205h-819v102h102v103h102v102h103v102h102v103h103v102h102v103h102v102h103v410h-1024v-205h819v-103h-102v-102h-103v-102h-102v-103h-103v-102h-102v-103h-102v-102h-103v-102h-102v-410z" />
<glyph unicode="[" d="M205 614v205h102v103h103v102h102v102h102v103h205v-205h-102v-102h-103v-103h615v-205h-615v-102h103v-102h102v-205h-205v102h-102v103h-102v102h-103v102h-102z" />
<glyph unicode="\" d="M205 1024h102v-102h103v-103h102v-102h102v-103h103v-102h102v-102h103v-103h102v-102h205v205h-103v102h-102v102h-102v103h-103v102h-102v103h-103v102h-102v102h-102v103h-205v-205z" />
<glyph unicode="]" d="M205 614h614v-102h-102v-102h-103v-205h205v102h103v103h102v102h102v102h103v205h-103v103h-102v102h-102v102h-103v103h-205v-205h103v-102h102v-103h-614v-205z" />
<glyph unicode="^" d="M205 614h205v103h102v102h102v-614h205v614h103v-102h102v-103h205v205h-103v103h-102v102h-102v102h-103v103h-205v-103h-102v-102h-102v-102h-103v-103h-102v-205z" />
<glyph unicode="_" d="M205 0v-205h1024v205h-1024z" />
<glyph unicode="`" d="M205 819h1024v205h-1024v-205z" />
<glyph unicode="a" d="M205 205h102v-103h103v-102h819v819h-103v103h-102v102h-614v-205h512v-102h102v-103h-614v-102h-103v-102h-102v-205zM512 205v205h512v-205h-512z" />
<glyph unicode="b" d="M205 0h819v102h102v103h103v614h-103v103h-102v102h-614v410h-205v-1434zM410 205v614h512v-102h102v-410h-102v-102h-512z" />
<glyph unicode="c" d="M205 205h102v-103h103v-102h819v205h-717v102h-102v410h102v102h717v205h-819v-102h-103v-103h-102v-614z" />
<glyph unicode="d" d="M205 205h102v-103h103v-102h819v1434h-205v-410h-614v-102h-103v-103h-102v-614zM410 307v410h102v102h512v-614h-512v102h-102z" />
<glyph unicode="e" d="M205 205h102v-103h103v-102h614v205h-512v102h-102v103h819v409h-103v103h-102v102h-614v-102h-103v-103h-102v-614zM410 614v103h102v102h410v-102h102v-103h-614z" />
<glyph unicode="f" d="M410 614h204v-614h205v614h205v205h-205v307h103v103h102v205h-205v-103h-102v-102h-103v-410h-204v-205z" />
<glyph unicode="g" d="M205 205h102v-103h103v-102h614v-102h-102v-103h-512v-205h614v103h102v102h103v1229h-819v-102h-103v-103h-102v-614zM410 307v410h102v102h512v-614h-512v102h-102z" />
<glyph unicode="h" d="M205 0h205v819h512v-102h102v-717h205v819h-103v103h-102v102h-614v410h-205v-1434z" />
<glyph unicode="i" d="M410 0h614v205h-205v819h-409v-205h204v-614h-204v-205zM614 1229h205v205h-205v-205z" />
<glyph unicode="j" d="M410 -205v-205h204v103h103v102h102v1229h-205v-1126h-102v-103h-102zM614 1229h205v205h-205v-205z" />
<glyph unicode="k" d="M410 0h204v410h103v-103h102v-102h103v-103h102v-102h205v205h-103v102h-102v103h-102v204h102v103h102v102h103v205h-205v-102h-102v-103h-103v-102h-102v-103h-103v820h-204v-1434z" />
<glyph unicode="l" d="M410 0h614v205h-205v1229h-409v-205h204v-1024h-204v-205z" />
<glyph unicode="m" d="M205 0h205v819h102v-102h102v-717h205v717h205v-717h205v819h-103v103h-102v102h-205v-102h-205v102h-409v-1024z" />
<glyph unicode="n" d="M205 0h205v819h512v-102h102v-717h205v819h-103v103h-102v102h-819v-1024z" />
<glyph unicode="o" d="M205 205h102v-103h103v-102h614v102h102v103h103v614h-103v103h-102v102h-614v-102h-103v-103h-102v-614zM410 307v410h102v102h410v-102h102v-410h-102v-102h-410v102h-102z" />
<glyph unicode="p" d="M205 -410h205v410h614v102h102v103h103v614h-103v103h-102v102h-819v-1434zM410 205v614h512v-102h102v-410h-102v-102h-512z" />
<glyph unicode="q" d="M205 205h102v-103h103v-102h614v-410h205v1434h-819v-102h-103v-103h-102v-614zM410 307v410h102v102h512v-614h-512v102h-102z" />
<glyph unicode="r" d="M410 0h204v614h205v103h103v102h307v205h-410v-102h-102v-103h-103v205h-204v-1024z" />
<glyph unicode="s" d="M205 0h819v102h102v103h103v205h-103v102h-102v102h-512v205h717v205h-819v-102h-103v-103h-102v-205h102v-102h103v-102h512v-205h-717v-205z" />
<glyph unicode="t" d="M410 819h204v-614h103v-103h102v-102h205v205h-102v102h-103v512h205v205h-205v410h-205v-410h-204v-205z" />
<glyph unicode="u" d="M205 205h102v-103h103v-102h819v1024h-205v-819h-512v102h-102v717h-205v-819z" />
<glyph unicode="v" d="M205 614h102v-102h103v-307h102v-103h102v-102h205v102h103v103h102v307h102v102h103v410h-205v-307h-102v-103h-103v-307h-205v307h-102v103h-102v307h-205v-410z" />
<glyph unicode="w" d="M205 205h102v-103h103v-102h204v102h205v-102h205v102h102v103h103v819h-205v-717h-205v307h-205v-307h-204v717h-205v-819z" />
<glyph unicode="x" d="M205 0h205v102h102v103h102v102h205v-102h103v-103h102v-102h205v205h-103v102h-102v103h-102v204h102v103h102v102h103v205h-205v-102h-102v-103h-103v-102h-205v102h-102v103h-102v102h-205v-205h102v-102h103v-103h102v-204h-102v-103h-103v-102h-102v-205z" />
<glyph unicode="y" d="M205 205h102v-103h103v-102h614v-102h-102v-103h-512v-205h614v103h102v102h103v1229h-205v-819h-512v102h-102v717h-205v-819z" />
<glyph unicode="z" d="M205 0h1024v205h-615v102h103v103h102v102h103v102h102v103h102v102h103v205h-1024v-205h614v-102h-102v-103h-103v-102h-102v-102h-102v-103h-103v-102h-102v-205z" />
<glyph unicode="{" d="M410 0h614v205h-358v1024h358v205h-614v-1434z" />
<glyph unicode="|" d="M410 0h204v1434h-204v-1434zM819 0h205v1434h-205v-1434z" />
<glyph unicode="}" d="M410 0h614v1434h-614v-205h358v-1024h-358v-205z" />
<glyph unicode="&#xa0;" />
<glyph unicode="&#xa3;" d="M205 0v-205h1024v205h-615v410h205v204h-205v512h103v103h205v-103h102v-102h205v205h-103v102h-102v103h-410v-103h-102v-102h-102v-615h-205v-204h205v-410h-205z" />
<glyph unicode="&#xad;" d="M205 614h1024v205h-1024v-205z" />
<glyph unicode="&#xbc;" d="M410 410h204v1024h-204v-1024zM614 205v-410h410v-205h205v1024h-205v-102h-102v-102h-103v-103h-102v-102h-103zM819 0v102h103v103h102v-205h-205z" />
<glyph unicode="&#xbd;" d="M205 410h205v1024h-205v-1024zM614 0v-410h615v205h-410v103h103v102h102v102h102v103h103v205h-103v102h-102v102h-410v-204h308v-205h-103v-103h-102v-102h-103z" />
<glyph unicode="&#xbe;" d="M205 410h409v102h103v102h102v205h-102v205h102v205h-102v102h-103v103h-409v-205h307v-205h-307v-205h307v-205h-307v-204zM614 205v-410h410v-205h205v1024h-205v-102h-102v-102h-103v-103h-102v-102h-103zM819 0v102h103v103h102v-205h-205z" />
<glyph unicode="&#xf7;" d="M205 614h1024v205h-1024v-205zM614 205h205v205h-205v-205zM614 1024h205v205h-205v-205z" />
<glyph unicode="&#x2000;" horiz-adv-x="717" />
<glyph unicode="&#x2001;" horiz-adv-x="1434" />
<glyph unicode="&#x2002;" horiz-adv-x="717" />
<glyph unicode="&#x2003;" horiz-adv-x="1434" />
<glyph unicode="&#x2004;" horiz-adv-x="478" />
<glyph unicode="&#x2005;" horiz-adv-x="358" />
<glyph unicode="&#x2006;" horiz-adv-x="239" />
<glyph unicode="&#x2007;" horiz-adv-x="239" />
<glyph unicode="&#x2008;" horiz-adv-x="179" />
<glyph unicode="&#x2009;" horiz-adv-x="286" />
<glyph unicode="&#x200a;" horiz-adv-x="79" />
<glyph unicode="&#x2010;" d="M205 614h1024v205h-1024v-205z" />
<glyph unicode="&#x2011;" d="M205 614h1024v205h-1024v-205z" />
<glyph unicode="&#x2012;" d="M205 614h1024v205h-1024v-205z" />
<glyph unicode="&#x2013;" d="M205 614h1024v205h-1024v-205z" />
<glyph unicode="&#x2014;" horiz-adv-x="2252" d="M205 614h2048v205h-2048v-205z" />
<glyph unicode="&#x202f;" horiz-adv-x="286" />
<glyph unicode="&#x205f;" horiz-adv-x="358" />
<glyph unicode="&#x25fc;" horiz-adv-x="1024" d="M0 0v1024h1024v-1024h-1024z" />
</font>
</defs>
</svg>
